<svg width="1520" height="152" viewBox="0 0 1520 152" xmlns="http://www.w3.org/2000/svg" xmlns:xlink="http://www.w3.org/1999/xlink">
    <defs>
        <filter x="-4.6%" y="-75%" width="109.2%" height="283.3%" filterUnits="objectBoundingBox" id="sma29fwxea">
            <feOffset dy="12" in="SourceAlpha" result="shadowOffsetOuter1"/>
            <feGaussianBlur stdDeviation="20" in="shadowOffsetOuter1" result="shadowBlurOuter1"/>
            <feColorMatrix values="0 0 0 0 0.211764706 0 0 0 0 0.258823529 0 0 0 0 0.290196078 0 0 0 0.05 0" in="shadowBlurOuter1"/>
        </filter>
        <path id="ic9he47d1b" d="M0 0h1440v72H0z"/>
    </defs>
    <g fill="none" fill-rule="evenodd">
        <g transform="translate(40 28)">
            <use fill="#000" filter="url(#sma29fwxea)" xlink:href="#ic9he47d1b"/>
            <use fill="#FFF" xlink:href="#ic9he47d1b"/>
        </g>
        <path d="M802.838 49a.286.286 0 0 0-.284.233l-1.66 9.66-.124-.224c-.442-.75-1.095-1.28-1.958-1.59-.863-.31-1.815-.466-2.855-.466-1.15 0-2.212.23-3.186.69a8.697 8.697 0 0 0-2.573 1.848 10.363 10.363 0 0 0-1.842 2.651 10.43 10.43 0 0 0-.962 3.133c-.177 1.178-.15 2.26.083 3.245.232.986.647 1.837 1.244 2.555.598.718 1.356 1.275 2.274 1.67.918.397 1.975.595 3.17.595.553 0 1.1-.075 1.643-.225a8.109 8.109 0 0 0 1.51-.578c.465-.236 1.992-1.5 2.423-1.745.233-.132.488-.28.92-.28.434 0 .659.2.838.392.288.307.69 1.585.864 1.858.173.272.434.578.868.578.433 0 .806-.816.893-1.151.337-1.306 1.525-8.993 3.564-22.849h-4.85zm-10.473 15.786c.173-1.172.65-2.12 1.432-2.846.782-.724 1.79-1.087 3.028-1.087 1.237 0 2.149.363 2.735 1.087.586.725.792 1.674.618 2.846-.173 1.172-.656 2.121-1.448 2.845-.793.725-1.807 1.088-3.045 1.088-1.237 0-2.143-.363-2.718-1.088-.575-.724-.776-1.673-.602-2.845zm-20.417-5.975a9.613 9.613 0 0 0-2.27 2.593c-.607 1.01-1 2.137-1.176 3.382-.177 1.246-.105 2.373.215 3.382a6.49 6.49 0 0 0 1.525 2.593c.696.72 1.563 1.273 2.601 1.66 1.038.386 2.176.579 3.413.579 1.303 0 2.601-.268 3.893-.805a9.519 9.519 0 0 0 3.33-2.287l-3.114-2.48a7.115 7.115 0 0 1-1.673 1.369c-.608.354-1.32.531-2.138.531-.972 0-1.75-.274-2.336-.821-.585-.548-.911-1.451-.977-2.375h11.531l.232-1.346c.177-1.245.16-2.373-.05-3.382-.21-1.01-.59-1.874-1.143-2.593-.552-.72-1.27-1.272-2.154-1.659-.883-.387-1.9-.58-3.048-.58-1.237 0-2.43.193-3.58.58-1.148.387-2.175.94-3.08 1.659zm3.077 2.171c.33-.27.714-.492 1.153-.665.44-.174.933-.26 1.482-.26.9 0 1.592.292 2.076.876.483.585.658 1.288.526 2.11h-6.521a3.761 3.761 0 0 1 1.284-2.062zm-22.05-2.171a9.613 9.613 0 0 0-2.27 2.593c-.607 1.01-1 2.137-1.176 3.382-.177 1.246-.105 2.373.215 3.382a6.491 6.491 0 0 0 1.524 2.593c.696.72 1.563 1.273 2.602 1.66 1.038.386 2.175.579 3.412.579 1.304 0 2.602-.268 3.894-.805a9.516 9.516 0 0 0 3.33-2.287l-3.115-2.48a7.104 7.104 0 0 1-1.673 1.369c-.608.354-1.32.531-2.137.531-.972 0-1.751-.274-2.337-.821-.585-.548-.91-1.451-.977-2.375h11.531l.232-1.346c.177-1.245.16-2.373-.05-3.382-.21-1.01-.59-1.874-1.143-2.593-.552-.72-1.27-1.272-2.153-1.659-.884-.387-1.9-.58-3.049-.58-1.237 0-2.43.193-3.579.58-1.148.387-2.176.94-3.081 1.659zm3.077 2.171c.33-.27.713-.492 1.153-.665.439-.174.933-.26 1.482-.26.9 0 1.592.292 2.075.876.483.585.659 1.288.527 2.11h-6.522c.088-.389.242-.762.462-1.12a3.76 3.76 0 0 1 .823-.94zm-19.292-2.171a9.604 9.604 0 0 0-2.263 2.593c-.606 1.01-.997 2.137-1.173 3.382-.176 1.246-.105 2.373.215 3.382a6.495 6.495 0 0 0 1.52 2.593c.693.72 1.558 1.273 2.593 1.66 1.035.386 2.17.579 3.403.579.947 0 1.96-.156 3.04-.467a7.908 7.908 0 0 0 2.973-1.627l-2.775-3.35c-.33.322-.716.602-1.157.838a3.1 3.1 0 0 1-1.487.354c-1.255 0-2.175-.365-2.758-1.095-.584-.73-.788-1.686-.611-2.867.176-1.18.66-2.136 1.453-2.867.793-.73 1.817-1.095 3.073-1.095.506 0 .964.113 1.371.338.407.226.71.622.908.966l3.734-3.462a5.266 5.266 0 0 0-2.494-1.627 9.834 9.834 0 0 0-2.924-.467c-1.234 0-2.423.193-3.569.58-1.145.387-2.17.94-3.072 1.659zm-13.43 1.402-2.087-3.345a.292.292 0 0 0-.248-.137l-5.798.021 4.618 7.396-7.815 8.75 5.852-.038c.083 0 .161-.035.216-.097l4.199-4.69 2.99 4.786 5.981.04-5.457-8.752 6.62-7.395-5.83-.02a.291.291 0 0 0-.218.096l-3.024 3.385z" fill="#36424A"/>
    </g>
</svg>
